<svg width="91" height="90" viewBox="0 0 91 90" fill="none" xmlns="http://www.w3.org/2000/svg">
<path d="M38.9372 0.00170742C38.0773 -0.00110894 37.2148 -0.00030427 36.35 0.0031156C32.1872 0.0210196 27.9579 0.122207 23.6925 0.268658L24.9265 5.27635C29.3684 4.81165 34.2383 4.46564 39.1076 4.29264C41.7457 4.19889 44.3677 4.14941 46.911 4.16188C54.5411 4.19869 61.4639 4.79154 65.9933 6.41537L67.93 7.11021L67.0653 8.85736C60.7471 21.6286 59.2859 33.9495 60.276 46.0386C60.7647 31.6916 67.2099 18.9311 75.671 2.57244C64.1577 0.802158 51.8352 0.041337 38.9372 0.0015056V0.00170742ZM45.0321 7.80505C43.1319 7.80645 41.1948 7.84206 39.2579 7.91086C30.1979 8.23273 21.1694 9.21644 15.2851 10.3442C21.8582 21.6255 27.1754 32.9328 30.609 43.9559C31.0361 43.9427 31.4636 43.9457 31.8904 43.9649C32.764 44.0046 33.628 44.1142 34.4722 44.2848C30.9773 33.9453 26.9965 24.4093 22.0479 14.8878L20.9298 12.7365L23.4705 12.3205C29.8528 11.2748 36.4404 10.8701 42.7102 10.8682C43.128 10.8682 43.545 10.8697 43.9598 10.8731C47.9437 10.9053 51.7832 11.096 55.3405 11.383L57.7438 11.5772L57.0429 13.713C52.9772 26.0975 52.1809 39.3978 54.4796 52.0521C54.5178 52.0849 54.5565 52.1175 54.5939 52.1507C55.4229 51.8819 56.1984 51.6079 56.9213 51.315C55.1268 37.7575 55.9219 23.7704 62.6238 9.23033C58.8839 8.3486 53.1827 7.88772 46.9182 7.8153C46.2895 7.80811 45.6608 7.80456 45.0321 7.80505ZM76.545 9.29068C69.8147 22.4785 65.0345 33.0467 64.2509 44.4556C68.6074 31.0171 77.028 18.9705 86.6235 11.231C83.2928 10.4622 79.9307 9.81495 76.545 9.29068ZM12.4168 13.0181C8.33815 13.7963 4.35385 14.784 0.5 16.1487C2.3754 17.6535 5.76573 20.4527 9.87917 24.1731C11.7724 22.3701 13.7032 20.5887 15.7171 18.9689C14.6505 16.9696 13.5502 14.9858 12.4168 13.0181ZM43.2943 14.5233C40.3332 14.51 37.302 14.5885 34.26 14.7834C33.9408 17.5358 32.1815 20.1107 30.0802 22.6431C33.4351 29.9795 36.3326 37.4658 38.9411 45.4142C42.9361 46.5045 46.8884 47.7934 50.09 49.3378C48.9008 40.7965 49.0634 32.0447 50.6074 23.486C47.8061 20.8084 46.3468 17.8351 46.2298 14.5661C45.2515 14.542 44.273 14.5277 43.2943 14.5233ZM82.8673 19.9518C77.4907 25.8461 72.7531 33.2284 69.5247 41.258C75.4522 33.4563 82.7412 27.3709 90.5 23.0723C87.9723 21.998 85.4278 20.9577 82.8673 19.9518ZM17.4827 22.3576C14.3098 25.0106 11.1747 28.1949 7.90984 31.2285C14.9299 35.0892 20.9091 39.6611 25.7868 44.8396C26.0896 44.7338 26.3955 44.6386 26.7032 44.5519C24.4208 37.2906 21.2929 29.86 17.4827 22.3576ZM68.2239 47.4538C64.659 51.4345 61.3028 53.5361 56.6815 55.2129C57.2013 57.0677 56.4293 59.197 54.6522 60.8257C53.6069 61.7835 52.2933 62.8752 50.3726 63.5847C50.6497 63.7365 50.9326 63.8793 51.2206 64.0126C53.9086 65.2538 58.6576 64.8535 63.0695 62.9969C67.4678 61.1462 71.3969 57.9492 72.8531 54.7106C73.5829 52.89 73.0618 51.9405 71.7841 50.548C70.8744 49.5572 69.5458 48.5584 68.2239 47.454V47.4538ZM31.2467 47.5717C28.9171 47.552 26.5512 48.174 24.596 49.5351C21.8153 51.471 19.6716 54.9232 19.6525 60.7873V60.8275L19.6503 60.8677C19.0155 73.2157 19.9982 78.9126 21.9451 82.0035C23.6635 84.7318 26.5216 86.0378 30.7025 88.4397C30.9016 87.9557 31.109 87.3605 31.3036 86.6095C31.7987 84.6986 32.2083 82.0742 32.4679 79.1713C32.9873 73.366 32.9114 66.3951 32.0428 61.3789L31.5839 58.7255L34.4137 59.328C41.2872 60.7911 45.2191 60.9639 47.5019 60.5913C49.7852 60.2184 50.559 59.4803 51.8982 58.2529C53.157 57.0998 53.1336 56.6848 52.867 56.0359C52.6002 55.3867 51.5301 54.3169 49.7145 53.2933C46.0831 51.2462 39.9125 49.3482 34.1448 47.9328C33.1988 47.7011 32.2252 47.5798 31.2467 47.5717ZM72.3593 61.536C70.1824 63.4982 67.5034 65.109 64.6897 66.2931C60.1277 68.2126 55.1098 69.0907 50.9468 67.8125C49.4771 68.3186 48.6233 68.9002 48.1926 69.3816C47.6017 70.0423 47.5648 70.5283 47.765 71.2243C47.965 71.9204 48.5618 72.7468 49.2997 73.3414C50.0374 73.9361 50.9142 74.2451 51.2475 74.2595C61.4211 74.7065 65.8241 72.0051 71.3097 68.8716C72.9094 67.9579 73.5216 66.107 73.3683 64.2586C73.2916 63.3345 73.0009 62.466 72.6655 61.919C72.5821 61.7795 72.4791 61.6507 72.3593 61.536ZM36.2282 63.3659C36.8211 68.4088 36.8309 74.2921 36.3678 79.47C36.0967 82.502 35.6775 85.2595 35.1092 87.4534C34.862 88.4081 34.59 89.2547 34.2613 90L66.155 88.6994C65.795 87.4625 65.428 86.2202 65.0612 84.9774C63.8359 85.3548 62.5834 85.6522 61.313 85.8674L61.3226 86.0142L59.5146 86.1185C58.4012 86.242 57.2422 86.3102 56.0397 86.318L37.8075 87.3661L38.3495 85.0311C40.0773 77.5867 40.2367 71.032 39.1709 63.8613C38.1866 63.7139 37.2054 63.5487 36.228 63.3659H36.2282ZM43.1793 64.3081C44.0377 70.7321 43.9344 76.8631 42.6562 83.4594L46.8445 83.2188C46.1877 82.322 45.7364 81.3103 45.5183 80.2459C45.2365 78.8619 45.3932 77.3213 46.3718 76.0475C46.4151 75.991 46.4618 75.9369 46.5081 75.8824C45.3676 74.9077 44.4149 73.657 43.9831 72.1559C43.5235 70.5578 43.8105 68.6013 45.1782 67.0724C45.6302 66.5675 46.1766 66.1116 46.8182 65.7012C46.2507 65.2828 45.7533 64.8392 45.3237 64.3771C44.6575 64.3814 43.9442 64.3584 43.1793 64.3081ZM72.0226 72.714C66.9229 75.5812 61.1932 78.3217 51.0618 77.8768C50.7312 77.8618 50.4025 77.8204 50.0796 77.753C49.8115 77.8643 49.6684 78.0057 49.5617 78.1447C49.3523 78.4173 49.2286 78.9092 49.3641 79.5756C49.6354 80.9088 51.0001 82.3697 52.2709 82.5065C61.2685 83.4747 67.4852 80.7511 71.2599 77.5825C72.9992 76.1224 73.014 75.1885 72.7578 74.1724C72.6296 73.6649 72.3469 73.1728 72.0226 72.714ZM70.5696 82.5837C69.9656 82.934 69.3456 83.2602 68.7114 83.5614C69.0701 84.7787 69.4297 85.9959 69.7847 87.2134L74.1156 86.4948C72.9981 85.6123 72.1237 84.6936 71.4219 83.7799C71.1083 83.3717 70.832 82.975 70.5696 82.5837Z" fill="black"/>
</svg>
