<svg width="40" height="40" viewBox="0 0 40 40" fill="none" xmlns="http://www.w3.org/2000/svg">
<g clip-path="url(#clip0_1177_53)">
<path d="M25.0002 31.6666C25.0005 32.5076 24.6829 33.3176 24.1111 33.9342C23.5393 34.5509 22.7555 34.9286 21.9169 34.9916L21.6669 35H18.3336C17.4926 35.0002 16.6826 34.6826 16.066 34.1108C15.4494 33.539 15.0716 32.7552 15.0086 31.9166L15.0002 31.6666H25.0002ZM20.0002 3.33331C23.0252 3.33326 25.9319 4.50814 28.1073 6.6101C30.2826 8.71207 31.5565 11.5768 31.6602 14.6L31.6669 15V21.2733L34.7036 27.3466C34.8361 27.6116 34.9024 27.9048 34.8969 28.201C34.8913 28.4973 34.814 28.7878 34.6717 29.0476C34.5293 29.3074 34.3261 29.5289 34.0794 29.693C33.8327 29.8572 33.5499 29.959 33.2552 29.99L33.0636 30H6.9369C6.64051 30.0001 6.34851 29.9283 6.08594 29.7908C5.82336 29.6533 5.59803 29.4542 5.42926 29.2106C5.26049 28.9669 5.15331 28.686 5.11691 28.3918C5.0805 28.0977 5.11596 27.7991 5.22024 27.5216L5.2969 27.3466L8.33357 21.2733V15C8.33357 11.9058 9.56273 8.93832 11.7507 6.7504C13.9386 4.56248 16.906 3.33331 20.0002 3.33331Z" fill="white"/>
</g>
<defs>
<clipPath id="clip0_1177_53">
<rect width="40" height="40" fill="white"/>
</clipPath>
</defs>
</svg>
