<svg width="19" height="18" viewBox="0 0 19 18" fill="none" xmlns="http://www.w3.org/2000/svg">
<path d="M17.5391 18C15.4558 18 13.3974 17.546 11.3641 16.638C9.33078 15.73 7.48078 14.4423 5.81411 12.775C4.14745 11.1083 2.86011 9.25833 1.95211 7.225C1.04411 5.19167 0.589778 3.13333 0.589111 1.05C0.589111 0.75 0.689111 0.5 0.889111 0.3C1.08911 0.0999999 1.33911 0 1.63911 0H5.68911C5.92244 0 6.13078 0.0793332 6.31411 0.238C6.49745 0.396667 6.60578 0.584 6.63911 0.8L7.28911 4.3C7.32244 4.56667 7.31411 4.79167 7.26411 4.975C7.21411 5.15833 7.12244 5.31667 6.98911 5.45L4.56411 7.9C4.89744 8.51667 5.29311 9.11233 5.75111 9.687C6.20911 10.2617 6.71344 10.816 7.26411 11.35C7.78078 11.8667 8.32244 12.346 8.88911 12.788C9.45578 13.23 10.0558 13.634 10.6891 14L13.0391 11.65C13.1891 11.5 13.3851 11.3877 13.6271 11.313C13.8691 11.2383 14.1064 11.2173 14.3391 11.25L17.7891 11.95C18.0224 12.0167 18.2141 12.1377 18.3641 12.313C18.5141 12.4883 18.5891 12.684 18.5891 12.9V16.95C18.5891 17.25 18.4891 17.5 18.2891 17.7C18.0891 17.9 17.8391 18 17.5391 18Z" fill="white"/>
</svg>
