<svg width="20" height="26" viewBox="0 0 20 26" fill="none" xmlns="http://www.w3.org/2000/svg">
<path fill-rule="evenodd" clip-rule="evenodd" d="M16.25 0.44873C17.2446 0.44873 18.1984 0.843819 18.9017 1.54708C19.6049 2.25034 20 3.20417 20 4.19873V24.1987C19.9999 24.4342 19.9332 24.6648 19.8078 24.864C19.6823 25.0632 19.5032 25.223 19.2909 25.3249C19.0787 25.4267 18.842 25.4666 18.6081 25.4399C18.3741 25.4131 18.1525 25.3209 17.9688 25.1737L15.625 23.2987L13.2812 25.1737C13.0411 25.3661 12.7385 25.4631 12.4313 25.4463C12.1241 25.4295 11.8339 25.2999 11.6163 25.0825L10 23.4662L8.38375 25.0825C8.16625 25.3001 7.87614 25.4299 7.56893 25.4469C7.26172 25.464 6.95901 25.3672 6.71875 25.175L4.375 23.2987L2.03125 25.1737C1.84747 25.3209 1.62586 25.4131 1.39195 25.4399C1.15804 25.4666 0.921335 25.4267 0.709086 25.3249C0.496838 25.223 0.317676 25.0632 0.192228 24.864C0.0667802 24.6648 0.00014705 24.4342 0 24.1987V4.19873C0 3.20417 0.395088 2.25034 1.09835 1.54708C1.80161 0.843819 2.75544 0.44873 3.75 0.44873H16.25ZM10 12.9487H6.25C5.91848 12.9487 5.60054 13.0804 5.36612 13.3148C5.1317 13.5493 5 13.8672 5 14.1987C5 14.5303 5.1317 14.8482 5.36612 15.0826C5.60054 15.317 5.91848 15.4487 6.25 15.4487H10C10.3315 15.4487 10.6495 15.317 10.8839 15.0826C11.1183 14.8482 11.25 14.5303 11.25 14.1987C11.25 13.8672 11.1183 13.5493 10.8839 13.3148C10.6495 13.0804 10.3315 12.9487 10 12.9487ZM13.75 7.94873H6.25C5.9314 7.94908 5.62496 8.07108 5.39329 8.28979C5.16162 8.5085 5.02221 8.80742 5.00353 9.12547C4.98486 9.44353 5.08834 9.7567 5.29283 10.001C5.49732 10.2453 5.78738 10.4024 6.10375 10.44L6.25 10.4487H13.75C14.0686 10.4484 14.375 10.3264 14.6067 10.1077C14.8384 9.88896 14.9778 9.59004 14.9965 9.27199C15.0151 8.95393 14.9117 8.64076 14.7072 8.39644C14.5027 8.15212 14.2126 7.99511 13.8962 7.95748L13.75 7.94873Z" fill="black"/>
</svg>
