<svg width="91" height="90" viewBox="0 0 91 90" fill="none" xmlns="http://www.w3.org/2000/svg">
<g clip-path="url(#clip0_261_294)">
<path d="M24.3693 29.4855L27.3805 28.0178L30.2211 29.4732C30.4068 29.5696 30.613 29.6197 30.8223 29.6191C31.0036 29.6192 31.183 29.5819 31.3493 29.5096C31.5157 29.4373 31.6653 29.3316 31.789 29.199C32.0205 28.9424 32.1462 28.6076 32.1406 28.2621V12.9199H22.4726V28.2691C22.4664 28.5886 22.5735 28.9 22.775 29.1481C22.9646 29.3746 23.2248 29.531 23.5139 29.5922C23.8029 29.6534 24.1041 29.6158 24.3693 29.4855Z" fill="black"/>
<path d="M0.5 51.9434V68.7305C0.5 69.0801 0.638898 69.4155 0.886139 69.6627C1.13338 69.9099 1.46871 70.0488 1.81836 70.0488H7.70703C7.65281 69.6115 7.62522 69.1712 7.62441 68.7305C7.62441 65.8167 8.7819 63.0223 10.8422 60.962C12.9026 58.9016 15.697 57.7441 18.6107 57.7441C21.5245 57.7441 24.3189 58.9016 26.3792 60.962C28.4396 63.0223 29.5971 65.8167 29.5971 68.7305C29.5963 69.1712 29.5687 69.6115 29.5145 70.0488H58.0684C58.418 70.0488 58.7533 69.9099 59.0006 69.6627C59.2478 69.4155 59.3867 69.0801 59.3867 68.7305V51.9434H0.5Z" fill="black"/>
<path d="M72.1309 60.3809C70.4795 60.3809 68.8652 60.8706 67.4921 61.788C66.119 62.7055 65.0488 64.0095 64.4168 65.5352C63.7849 67.0609 63.6195 68.7397 63.9417 70.3594C64.2639 71.9791 65.0591 73.4668 66.2268 74.6345C67.3945 75.8022 68.8823 76.5975 70.5019 76.9196C72.1216 77.2418 73.8004 77.0765 75.3261 76.4445C76.8518 75.8125 78.1558 74.7423 79.0733 73.3693C79.9908 71.9962 80.4805 70.3819 80.4805 68.7305C80.4777 66.5169 79.5971 64.3947 78.0318 62.8295C76.4666 61.2642 74.3445 60.3837 72.1309 60.3809ZM73.4492 69.1699C73.4492 69.5196 73.3103 69.8549 73.0631 70.1021C72.8158 70.3494 72.4805 70.4883 72.1309 70.4883C71.7812 70.4883 71.4459 70.3494 71.1986 70.1021C70.9514 69.8549 70.8125 69.5196 70.8125 69.1699V68.291C70.8125 67.9414 70.9514 67.606 71.1986 67.3588C71.4459 67.1116 71.7812 66.9727 72.1309 66.9727C72.4805 66.9727 72.8158 67.1116 73.0631 67.3588C73.3103 67.606 73.4492 67.9414 73.4492 68.291V69.1699Z" fill="black"/>
<path d="M68.1758 29.1797C68.1758 28.1307 67.7591 27.1247 67.0174 26.383C66.2756 25.6413 65.2697 25.2246 64.2207 25.2246H55.4316C54.3827 25.2246 53.3767 25.6413 52.635 26.383C51.8933 27.1247 51.4766 28.1307 51.4766 29.1797V33.1348H64.2207C65.2697 33.1348 66.2756 32.7181 67.0174 31.9763C67.7591 31.2346 68.1758 30.2286 68.1758 29.1797Z" fill="black"/>
<path d="M49.7188 14.2383C49.7188 13.8886 49.5799 13.5533 49.3326 13.3061C49.0854 13.0588 48.75 12.9199 48.4004 12.9199H34.7773V19.9512H49.7188V14.2383Z" fill="black"/>
<path d="M19.8359 12.9199H6.21289C5.86324 12.9199 5.52791 13.0588 5.28067 13.3061C5.03343 13.5533 4.89453 13.8886 4.89453 14.2383V19.9512H19.8359V12.9199Z" fill="black"/>
<path d="M19.8359 22.5879H7.70703V47.6367C7.70703 47.9864 7.84593 48.3217 8.09317 48.5689C8.34041 48.8162 8.67574 48.9551 9.02539 48.9551H45.9395C46.2891 48.9551 46.6244 48.8162 46.8717 48.5689C47.1189 48.3217 47.2578 47.9864 47.2578 47.6367V22.5879H34.7773V28.2621C34.7834 28.9427 34.6138 29.6134 34.2847 30.2092C33.9557 30.8051 33.4785 31.3059 32.8993 31.6634C32.32 32.0208 31.6583 32.2226 30.9782 32.2495C30.2981 32.2763 29.6226 32.1271 29.017 31.8164L27.3506 30.9621L25.5242 31.8516C24.9192 32.1471 24.2488 32.2832 23.5764 32.2469C22.9041 32.2107 22.2521 32.0034 21.6824 31.6445C21.1126 31.2857 20.644 30.7873 20.3208 30.1966C19.9977 29.6059 19.8308 28.9424 19.8359 28.2691V22.5879ZM11.6621 39.5385H17.1869C17.5366 39.5385 17.8719 39.6774 18.1191 39.9246C18.3664 40.1719 18.5053 40.5072 18.5053 40.8568C18.5053 41.2065 18.3664 41.5418 18.1191 41.7891C17.8719 42.0363 17.5366 42.1752 17.1869 42.1752H11.6621C11.3125 42.1752 10.9771 42.0363 10.7299 41.7891C10.4826 41.5418 10.3438 41.2065 10.3438 40.8568C10.3438 40.5072 10.4826 40.1719 10.7299 39.9246C10.9771 39.6774 11.3125 39.5385 11.6621 39.5385ZM19.9484 43.6816C20.2981 43.6816 20.6334 43.8205 20.8807 44.0678C21.1279 44.315 21.2668 44.6503 21.2668 45C21.2668 45.3497 21.1279 45.685 20.8807 45.9322C20.6334 46.1795 20.2981 46.3184 19.9484 46.3184H11.6621C11.3125 46.3184 10.9771 46.1795 10.7299 45.9322C10.4826 45.685 10.3438 45.3497 10.3438 45C10.3438 44.6503 10.4826 44.315 10.7299 44.0678C10.9771 43.8205 11.3125 43.6816 11.6621 43.6816H19.9484Z" fill="black"/>
<path d="M62.0234 49.3066H79.6543L77.0791 39.3908C76.8093 38.3539 76.2029 37.436 75.3551 36.7809C74.5072 36.1259 73.4659 35.7708 72.3945 35.7715H62.0234V49.3066Z" fill="black"/>
<path d="M87.3957 52.5709L85.7539 51.9434H62.0234V64.4238C63.0159 62.094 64.7828 60.1787 67.0251 59.0018C69.2674 57.8249 71.8474 57.4587 74.3286 57.9653C76.8098 58.4719 79.0398 59.8201 80.6413 61.7817C82.2428 63.7434 83.1174 66.1981 83.1172 68.7305C83.1164 69.1712 83.0888 69.6115 83.0346 70.0488H89.1869C89.5357 70.0474 89.8696 69.9079 90.1157 69.6608C90.3618 69.4137 90.5 69.0792 90.5 68.7305V57.085C90.4959 56.1078 90.1976 55.1545 89.6438 54.3493C89.0901 53.5441 88.3067 52.9244 87.3957 52.5709ZM87.8633 63.457C87.8633 63.8067 87.7244 64.142 87.4771 64.3893C87.2299 64.6365 86.8946 64.7754 86.5449 64.7754C86.1953 64.7754 85.8599 64.6365 85.6127 64.3893C85.3655 64.142 85.2266 63.8067 85.2266 63.457V61.6992C85.2266 61.3496 85.3655 61.0142 85.6127 60.767C85.8599 60.5198 86.1953 60.3809 86.5449 60.3809C86.8946 60.3809 87.2299 60.5198 87.4771 60.767C87.7244 61.0142 87.8633 61.3496 87.8633 61.6992V63.457Z" fill="black"/>
<path d="M51.4766 35.7715H59.3867V49.3066H51.4766V35.7715Z" fill="black"/>
<path d="M18.6055 60.3809C16.9541 60.3809 15.3398 60.8706 13.9667 61.788C12.5936 62.7055 11.5234 64.0095 10.8914 65.5352C10.2595 67.0609 10.0941 68.7397 10.4163 70.3594C10.7385 71.9791 11.5337 73.4668 12.7014 74.6345C13.8691 75.8022 15.3569 76.5975 16.9765 76.9196C18.5962 77.2418 20.275 77.0765 21.8007 76.4445C23.3264 75.8125 24.6305 74.7423 25.5479 73.3693C26.4654 71.9962 26.9551 70.3819 26.9551 68.7305C26.9523 66.5169 26.0717 64.3947 24.5065 62.8295C22.9412 61.2642 20.8191 60.3837 18.6055 60.3809ZM19.9238 69.1699C19.9238 69.5196 19.7849 69.8549 19.5377 70.1021C19.2905 70.3494 18.9551 70.4883 18.6055 70.4883C18.2558 70.4883 17.9205 70.3494 17.6733 70.1021C17.426 69.8549 17.2871 69.5196 17.2871 69.1699V68.291C17.2871 67.9414 17.426 67.606 17.6733 67.3588C17.9205 67.1116 18.2558 66.9727 18.6055 66.9727C18.9551 66.9727 19.2905 67.1116 19.5377 67.3588C19.7849 67.606 19.9238 67.9414 19.9238 68.291V69.1699Z" fill="black"/>
</g>
<defs>
<clipPath id="clip0_261_294">
<rect width="90" height="90" fill="white" transform="translate(0.5)"/>
</clipPath>
</defs>
</svg>
