<svg width="21" height="16" viewBox="0 0 21 16" fill="none" xmlns="http://www.w3.org/2000/svg">
<path d="M2.58911 16C2.03911 16 1.56844 15.8043 1.17711 15.413C0.785778 15.0217 0.589778 14.5507 0.589111 14V2C0.589111 1.45 0.785111 0.979333 1.17711 0.588C1.56911 0.196666 2.03978 0.000666667 2.58911 0H18.5891C19.1391 0 19.6101 0.196 20.0021 0.588C20.3941 0.98 20.5898 1.45067 20.5891 2V14C20.5891 14.55 20.3934 15.021 20.0021 15.413C19.6108 15.805 19.1398 16.0007 18.5891 16H2.58911ZM10.5891 9L18.5891 4V2L10.5891 7L2.58911 2V4L10.5891 9Z" fill="white"/>
</svg>
