<svg width="20" height="20" viewBox="0 0 20 20" fill="none" xmlns="http://www.w3.org/2000/svg">
<path d="M9.40051 16.1605L16.7965 8.76448C15.5522 8.24495 14.4221 7.4859 13.4705 6.53048C12.5146 5.57869 11.7552 4.44825 11.2355 3.20348L3.83951 10.5995C3.26251 11.1765 2.97351 11.4655 2.72551 11.7835C2.43261 12.1588 2.18147 12.5648 1.97651 12.9945C1.80351 13.3585 1.67451 13.7465 1.41651 14.5205L0.0545072 18.6035C-0.00817904 18.7904 -0.0174795 18.9911 0.027651 19.1831C0.0727816 19.375 0.170554 19.5506 0.309979 19.69C0.449403 19.8294 0.624953 19.9272 0.816894 19.9723C1.00884 20.0175 1.20956 20.0082 1.39651 19.9455L5.47951 18.5835C6.25451 18.3255 6.64151 18.1965 7.00551 18.0235C7.43551 17.8185 7.84151 17.5675 8.21651 17.2745C8.53451 17.0265 8.82351 16.7375 9.40051 16.1605ZM18.8485 6.71248C19.5859 5.97504 20.0002 4.97487 20.0002 3.93198C20.0002 2.88909 19.5859 1.88891 18.8485 1.15148C18.1111 0.414042 17.1109 -0.000244133 16.068 -0.000244141C15.0251 -0.000244148 14.0249 0.414042 13.2875 1.15148L12.4005 2.03848L12.4385 2.14948C12.8756 3.40019 13.5909 4.53538 14.5305 5.46948C15.4925 6.43718 16.6675 7.16658 17.9615 7.59948L18.8485 6.71248Z" fill="white"/>
</svg>
