<svg width="34" height="36" viewBox="0 0 34 36" fill="none" xmlns="http://www.w3.org/2000/svg">
<path d="M17 18C18.7306 18 20.4223 17.4868 21.8612 16.5254C23.3002 15.5639 24.4217 14.1973 25.0839 12.5985C25.7462 10.9996 25.9195 9.2403 25.5819 7.54296C25.2443 5.84563 24.4109 4.28653 23.1872 3.06282C21.9635 1.83911 20.4044 1.00575 18.707 0.668133C17.0097 0.330512 15.2504 0.503791 13.6515 1.16606C12.0527 1.82832 10.6861 2.94983 9.72464 4.38876C8.76318 5.82769 8.25 7.51942 8.25 9.25C8.25 11.5706 9.17187 13.7962 10.8128 15.4372C12.4538 17.0781 14.6794 18 17 18ZM17 20.5C11.5766 20.5 0.75 23.85 0.75 30.5V35.5H33.25V30.5C33.25 23.85 22.4234 20.5 17 20.5Z" fill="black"/>
</svg>
