<svg width="26" height="18" viewBox="0 0 26 18" fill="none" xmlns="http://www.w3.org/2000/svg">
<path d="M12.9998 5.5C13.9281 5.5 14.8183 5.86875 15.4747 6.52513C16.1311 7.1815 16.4998 8.07174 16.4998 9C16.4998 9.92826 16.1311 10.8185 15.4747 11.4749C14.8183 12.1313 13.9281 12.5 12.9998 12.5C12.0716 12.5 11.1813 12.1313 10.525 11.4749C9.86859 10.8185 9.49984 9.92826 9.49984 9C9.49984 8.07174 9.86859 7.1815 10.525 6.52513C11.1813 5.86875 12.0716 5.5 12.9998 5.5ZM12.9998 0.25C18.8332 0.25 23.8148 3.87833 25.8332 9C23.8148 14.1217 18.8332 17.75 12.9998 17.75C7.1665 17.75 2.18484 14.1217 0.166504 9C2.18484 3.87833 7.1665 0.25 12.9998 0.25ZM2.70984 9C3.6528 10.9254 5.11703 12.5475 6.93606 13.6821C8.7551 14.8167 10.856 15.4182 12.9998 15.4182C15.1437 15.4182 17.2446 14.8167 19.0636 13.6821C20.8826 12.5475 22.3469 10.9254 23.2898 9C22.3469 7.07464 20.8826 5.45246 19.0636 4.31787C17.2446 3.18328 15.1437 2.58179 12.9998 2.58179C10.856 2.58179 8.7551 3.18328 6.93606 4.31787C5.11703 5.45246 3.6528 7.07464 2.70984 9Z" fill="black"/>
</svg>
