<svg width="20" height="25" viewBox="0 0 20 25" fill="none" xmlns="http://www.w3.org/2000/svg">
<path fill-rule="evenodd" clip-rule="evenodd" d="M0.928711 9.47C0.928711 4.43646 4.98712 0.351425 10.0001 0.351425C15.0132 0.351425 19.0716 4.43646 19.0716 9.47C19.0716 11.8754 17.5674 15.0074 14.7402 18.8166L14.7372 18.8206L14.0584 19.7161C13.2327 20.7824 12.3063 21.9014 11.2782 23.0789L11.2755 23.0819L10.3741 24.0976C10.2798 24.2039 10.1446 24.265 10.0025 24.2657C9.8604 24.2664 9.7247 24.2065 9.62935 24.1011C8.348 22.6848 7.11844 21.2236 5.94312 19.7176L5.93878 19.7121L5.26005 18.8166C2.4329 15.0074 0.928711 11.8754 0.928711 9.47ZM10.0001 1.35143C5.54459 1.35143 1.92871 4.98354 1.92871 9.47C1.92871 11.5243 3.2469 14.4258 6.06159 18.2186C6.06208 18.2192 6.06257 18.2199 6.06307 18.2206L6.73363 19.1052C7.77871 20.4441 8.86737 21.7474 9.99789 23.015L10.5249 22.4211C10.5254 22.4206 10.5258 22.4201 10.5263 22.4196C11.5427 21.2555 12.4553 20.1529 13.2661 19.1059C13.2666 19.1052 13.2671 19.1045 13.2677 19.1039L13.9372 18.2206C13.9377 18.2199 13.9382 18.2193 13.9387 18.2186C16.7534 14.4259 18.0716 11.5243 18.0716 9.47C18.0716 4.98354 14.4557 1.35143 10.0001 1.35143Z" fill="black"/>
<path fill-rule="evenodd" clip-rule="evenodd" d="M10.0001 6.35143C8.30384 6.35143 6.92871 7.72655 6.92871 9.42285C6.92871 11.1192 8.30384 12.4943 10.0001 12.4943C11.6964 12.4943 13.0716 11.1192 13.0716 9.42285C13.0716 7.72655 11.6964 6.35143 10.0001 6.35143ZM5.92871 9.42285C5.92871 7.17427 7.75155 5.35143 10.0001 5.35143C12.2487 5.35143 14.0716 7.17427 14.0716 9.42285C14.0716 11.6714 12.2487 13.4943 10.0001 13.4943C7.75155 13.4943 5.92871 11.6714 5.92871 9.42285Z" fill="black"/>
</svg>
