<svg width="31" height="31" viewBox="0 0 31 31" fill="none" xmlns="http://www.w3.org/2000/svg">
<path d="M0.916626 15.5C0.916626 10.0007 0.916626 7.25025 2.62579 5.54254C4.3335 3.83337 7.08392 3.83337 12.5833 3.83337H18.4166C23.916 3.83337 26.6664 3.83337 28.3741 5.54254C30.0833 7.25025 30.0833 10.0007 30.0833 15.5V18.4167C30.0833 23.9161 30.0833 26.6665 28.3741 28.3742C26.6664 30.0834 23.916 30.0834 18.4166 30.0834H12.5833C7.08392 30.0834 4.3335 30.0834 2.62579 28.3742C0.916626 26.6665 0.916626 23.9161 0.916626 18.4167V15.5Z" stroke="black" stroke-width="1.5"/>
<path opacity="0.5" d="M8.20825 3.83337V1.64587M22.7916 3.83337V1.64587M1.64575 11.125H29.3541" stroke="black" stroke-width="1.5" stroke-linecap="round"/>
<path d="M24.25 22.7917C24.25 23.1784 24.0964 23.5494 23.8229 23.8229C23.5494 24.0964 23.1784 24.25 22.7917 24.25C22.4049 24.25 22.034 24.0964 21.7605 23.8229C21.487 23.5494 21.3333 23.1784 21.3333 22.7917C21.3333 22.4049 21.487 22.034 21.7605 21.7605C22.034 21.487 22.4049 21.3333 22.7917 21.3333C23.1784 21.3333 23.5494 21.487 23.8229 21.7605C24.0964 22.034 24.25 22.4049 24.25 22.7917ZM24.25 16.9583C24.25 17.3451 24.0964 17.716 23.8229 17.9895C23.5494 18.263 23.1784 18.4167 22.7917 18.4167C22.4049 18.4167 22.034 18.263 21.7605 17.9895C21.487 17.716 21.3333 17.3451 21.3333 16.9583C21.3333 16.5716 21.487 16.2006 21.7605 15.9271C22.034 15.6536 22.4049 15.5 22.7917 15.5C23.1784 15.5 23.5494 15.6536 23.8229 15.9271C24.0964 16.2006 24.25 16.5716 24.25 16.9583ZM16.9583 22.7917C16.9583 23.1784 16.8047 23.5494 16.5312 23.8229C16.2577 24.0964 15.8868 24.25 15.5 24.25C15.1132 24.25 14.7423 24.0964 14.4688 23.8229C14.1953 23.5494 14.0417 23.1784 14.0417 22.7917C14.0417 22.4049 14.1953 22.034 14.4688 21.7605C14.7423 21.487 15.1132 21.3333 15.5 21.3333C15.8868 21.3333 16.2577 21.487 16.5312 21.7605C16.8047 22.034 16.9583 22.4049 16.9583 22.7917ZM16.9583 16.9583C16.9583 17.3451 16.8047 17.716 16.5312 17.9895C16.2577 18.263 15.8868 18.4167 15.5 18.4167C15.1132 18.4167 14.7423 18.263 14.4688 17.9895C14.1953 17.716 14.0417 17.3451 14.0417 16.9583C14.0417 16.5716 14.1953 16.2006 14.4688 15.9271C14.7423 15.6536 15.1132 15.5 15.5 15.5C15.8868 15.5 16.2577 15.6536 16.5312 15.9271C16.8047 16.2006 16.9583 16.5716 16.9583 16.9583ZM9.66667 22.7917C9.66667 23.1784 9.51302 23.5494 9.23953 23.8229C8.96604 24.0964 8.59511 24.25 8.20833 24.25C7.82156 24.25 7.45063 24.0964 7.17714 23.8229C6.90365 23.5494 6.75 23.1784 6.75 22.7917C6.75 22.4049 6.90365 22.034 7.17714 21.7605C7.45063 21.487 7.82156 21.3333 8.20833 21.3333C8.59511 21.3333 8.96604 21.487 9.23953 21.7605C9.51302 22.034 9.66667 22.4049 9.66667 22.7917ZM9.66667 16.9583C9.66667 17.3451 9.51302 17.716 9.23953 17.9895C8.96604 18.263 8.59511 18.4167 8.20833 18.4167C7.82156 18.4167 7.45063 18.263 7.17714 17.9895C6.90365 17.716 6.75 17.3451 6.75 16.9583C6.75 16.5716 6.90365 16.2006 7.17714 15.9271C7.45063 15.6536 7.82156 15.5 8.20833 15.5C8.59511 15.5 8.96604 15.6536 9.23953 15.9271C9.51302 16.2006 9.66667 16.5716 9.66667 16.9583Z" fill="black"/>
</svg>
