<svg width="28" height="28" viewBox="0 0 28 28" fill="none" xmlns="http://www.w3.org/2000/svg">
<path d="M14 19.25C11.1125 19.25 8.75 16.8875 8.75 14C8.75 11.1125 11.1125 8.75 14 8.75C16.8875 8.75 19.25 11.1125 19.25 14C19.25 16.8875 16.8875 19.25 14 19.25ZM14 10.5C12.075 10.5 10.5 12.075 10.5 14C10.5 15.925 12.075 17.5 14 17.5C15.925 17.5 17.5 15.925 17.5 14C17.5 12.075 15.925 10.5 14 10.5Z" fill="black"/>
<path d="M14 22.75C8.41746 22.75 3.51746 19.355 1.80246 14.28C1.73251 14.0999 1.73251 13.9001 1.80246 13.72C3.51746 8.6625 8.43496 5.25 14 5.25C19.565 5.25 24.4825 8.645 26.1975 13.72C26.2675 13.895 26.2675 14.105 26.1975 14.28C24.4825 19.3375 19.565 22.75 14 22.75ZM3.55246 14C5.10996 18.2 9.27496 21 14 21C18.725 21 22.8725 18.2 24.4475 14C22.89 9.8 18.725 7 14 7C9.27496 7 5.12746 9.8 3.55246 14Z" fill="black"/>
<path d="M24.5 25.375C24.3852 25.3764 24.2715 25.3538 24.166 25.3086C24.0605 25.2634 23.9656 25.1966 23.8875 25.1125L2.8875 4.11251C2.5375 3.76251 2.5375 3.22001 2.8875 2.87001C3.2375 2.52001 3.78 2.52001 4.13 2.87001L25.1125 23.8875C25.4625 24.2375 25.4625 24.78 25.1125 25.13C24.9375 25.305 24.71 25.3925 24.5 25.3925V25.375Z" fill="black"/>
</svg>
