<svg width="75" height="80" viewBox="0 0 75 80" fill="none" xmlns="http://www.w3.org/2000/svg">
<path d="M71.1375 18.2559L40.2 1.32816C39.3734 0.871416 38.4444 0.631836 37.5 0.631836C36.5556 0.631836 35.6266 0.871416 34.8 1.32816L3.8625 18.2629C2.97898 18.7463 2.24146 19.4581 1.72694 20.3239C1.21242 21.1896 0.939786 22.1777 0.9375 23.1848V56.8082C0.939786 57.8154 1.21242 58.8034 1.72694 59.6692C2.24146 60.5349 2.97898 61.2467 3.8625 61.7301L34.8 78.6649C35.6266 79.1216 36.5556 79.3612 37.5 79.3612C38.4444 79.3612 39.3734 79.1216 40.2 78.6649L71.1375 61.7301C72.021 61.2467 72.7585 60.5349 73.2731 59.6692C73.7876 58.8034 74.0602 57.8154 74.0625 56.8082V23.1883C74.0621 22.1794 73.7904 21.1892 73.2757 20.3214C72.7611 19.4536 72.0226 18.7402 71.1375 18.2559ZM37.5 6.25003L65.748 21.7188L55.2785 27.4457L27.0305 11.977L37.5 6.25003ZM37.5 37.1875L9.25195 21.7188L21.1734 15.1903L49.4215 30.659L37.5 37.1875ZM68.4375 56.8223L40.3125 72.2172V42.0496L51.5625 35.8938V48.4375C51.5625 49.1835 51.8588 49.8988 52.3863 50.4263C52.9137 50.9537 53.6291 51.25 54.375 51.25C55.1209 51.25 55.8363 50.9537 56.3637 50.4263C56.8912 49.8988 57.1875 49.1835 57.1875 48.4375V32.8141L68.4375 26.6582V56.8082V56.8223Z" fill="black"/>
</svg>
