<svg width="19" height="18" viewBox="0 0 19 18" fill="none" xmlns="http://www.w3.org/2000/svg">
<path fill-rule="evenodd" clip-rule="evenodd" d="M13.7576 0H4.75757C2.28279 0 0.257568 2.02432 0.257568 4.5V13.5C0.257568 15.9748 2.28279 18 4.75757 18H13.7576C16.2323 18 18.2576 15.9748 18.2576 13.5V4.5C18.2576 2.02432 16.2323 0 13.7576 0ZM9.25757 12.7499C7.18622 12.7499 5.50749 11.0704 5.50749 9C5.50749 6.92865 7.18622 5.24993 9.25757 5.24993C11.328 5.24993 13.0076 6.92865 13.0076 9C13.0076 11.0704 11.328 12.7499 9.25757 12.7499ZM13.0076 4.12492C13.0076 4.74615 13.5107 5.24992 14.1326 5.24992C14.7545 5.24992 15.2576 4.74615 15.2576 4.12492C15.2576 3.5037 14.7545 2.99992 14.1326 2.99992C13.5107 2.99992 13.0076 3.5037 13.0076 4.12492Z" fill="white"/>
</svg>
