<svg width="20" height="16" viewBox="0 0 20 16" fill="none" xmlns="http://www.w3.org/2000/svg">
<path d="M17.8906 3.997C17.9036 4.172 17.9036 4.346 17.9036 4.52C17.9036 9.845 13.8506 15.981 6.44357 15.981C4.16157 15.981 2.04157 15.32 0.257568 14.172C0.581568 14.209 0.893568 14.222 1.23057 14.222C3.11357 14.222 4.84657 13.586 6.23157 12.501C4.46057 12.464 2.97657 11.304 2.46457 9.708C2.71357 9.745 2.96357 9.77 3.22557 9.77C3.58657 9.77 3.94957 9.72 4.28657 9.633C2.43957 9.259 1.05657 7.638 1.05657 5.68V5.63C1.59357 5.929 2.21657 6.116 2.87657 6.141C1.79157 5.419 1.08057 4.184 1.08057 2.787C1.08057 2.039 1.27957 1.353 1.62857 0.754997C3.61157 3.198 6.59257 4.795 9.93457 4.97C9.87257 4.67 9.83457 4.359 9.83457 4.047C9.83457 1.827 11.6306 0.0189972 13.8626 0.0189972C15.0226 0.0189972 16.0696 0.504997 16.8056 1.291C17.7156 1.116 18.5876 0.778997 19.3616 0.317997C19.0626 1.253 18.4256 2.039 17.5906 2.538C18.4016 2.45 19.1876 2.226 19.9096 1.914C19.3616 2.712 18.6766 3.423 17.8906 3.997Z" fill="white"/>
</svg>
