<svg width="28" height="32" viewBox="0 0 28 32" fill="none" xmlns="http://www.w3.org/2000/svg">
<path d="M18.354 0.669987C18.0338 0.410373 17.6636 0.219529 17.2663 0.109364C16.8691 -0.00080061 16.4535 -0.0279228 16.0453 0.0296898C15.6371 0.0873024 15.2452 0.228413 14.894 0.444219C14.5428 0.660024 14.2398 0.945892 14.004 1.28399L7.92 9.99799H10.36L15.64 2.42799C15.7187 2.31504 15.8198 2.21954 15.937 2.14748C16.0543 2.07542 16.1852 2.02834 16.3215 2.00919C16.4578 1.99004 16.5966 1.99923 16.7292 2.03619C16.8617 2.07315 16.9853 2.13709 17.092 2.22399L18.708 3.53599L14.24 9.99799H16.672L20.264 4.79799L23.632 7.53199C23.8282 7.69153 23.9567 7.9195 23.9916 8.17C24.0265 8.42049 23.9652 8.6749 23.82 8.88199L23.04 9.99799H25.48C25.9041 9.37629 26.079 8.61793 25.9701 7.8733C25.8611 7.12868 25.4764 6.45218 24.892 5.97799L18.354 0.669987ZM3 7.99999C2.20435 7.99999 1.44129 8.31606 0.87868 8.87867C0.316071 9.44127 0 10.2043 0 11V27C0 28.3261 0.526784 29.5978 1.46447 30.5355C2.40215 31.4732 3.67392 32 5 32H24C25.0609 32 26.0783 31.5786 26.8284 30.8284C27.5786 30.0783 28 29.0609 28 28V16C28 14.9391 27.5786 13.9217 26.8284 13.1716C26.0783 12.4214 25.0609 12 24 12H3C2.73478 12 2.48043 11.8946 2.29289 11.7071C2.10536 11.5196 2 11.2652 2 11C2 10.7348 2.10536 10.4804 2.29289 10.2929C2.48043 10.1053 2.73478 9.99999 3 9.99999H5.938L7.338 7.99999H3ZM21 22H23C23.2652 22 23.5196 22.1053 23.7071 22.2929C23.8946 22.4804 24 22.7348 24 23C24 23.2652 23.8946 23.5196 23.7071 23.7071C23.5196 23.8946 23.2652 24 23 24H21C20.7348 24 20.4804 23.8946 20.2929 23.7071C20.1054 23.5196 20 23.2652 20 23C20 22.7348 20.1054 22.4804 20.2929 22.2929C20.4804 22.1053 20.7348 22 21 22Z" fill="black"/>
</svg>
